<mxfile host="drawio-plugin" modified="2023-04-08T12:30:35.610Z" agent="5.0 (Windows NT 6.2; Win64; x64) AppleWebKit/537.36 (KHTML, like Gecko) Chrome/104.0.5112.102 Safari/537.36" etag="7bh4fnPbx5CdoeRJfgDB" version="20.5.3" type="embed" pages="2"><diagram name="Página-1" id="P6RTze07SMLhdZGsH7tR"><mxGraphModel dx="2117" dy="1416" grid="1" gridSize="10" guides="1" tooltips="1" connect="1" arrows="1" fold="1" page="0" pageScale="0.5" pageWidth="827" pageHeight="1169" math="0" shadow="0"><root><mxCell id="0"/><mxCell id="1" parent="0"/><mxCell id="bWB5HU2DyL7P9xEXCVta-12" value="email" style="swimlane;fontStyle=0;childLayout=stackLayout;horizontal=1;startSize=26;fillColor=none;horizontalStack=0;resizeParent=1;resizeParentMax=0;resizeLast=0;collapsible=1;marginBottom=0;whiteSpace=wrap;html=1;" parent="1" vertex="1"><mxGeometry x="40" y="220" width="210" height="208" as="geometry"/></mxCell><mxCell id="tcx8inSMVFt6JUJdeJ5o-15" value="+ id_livro: int" style="text;strokeColor=none;fillColor=none;align=left;verticalAlign=top;spacingLeft=4;spacingRight=4;overflow=hidden;rotatable=0;points=[[0,0.5],[1,0.5]];portConstraint=eastwest;whiteSpace=wrap;html=1;" parent="bWB5HU2DyL7P9xEXCVta-12" vertex="1"><mxGeometry y="26" width="210" height="26" as="geometry"/></mxCell><mxCell id="bWB5HU2DyL7P9xEXCVta-13" value="+ assunto: string" style="text;strokeColor=none;fillColor=none;align=left;verticalAlign=top;spacingLeft=4;spacingRight=4;overflow=hidden;rotatable=0;points=[[0,0.5],[1,0.5]];portConstraint=eastwest;whiteSpace=wrap;html=1;" parent="bWB5HU2DyL7P9xEXCVta-12" vertex="1"><mxGeometry y="52" width="210" height="26" as="geometry"/></mxCell><mxCell id="bWB5HU2DyL7P9xEXCVta-14" value="+ data_hora: datetime" style="text;strokeColor=none;fillColor=none;align=left;verticalAlign=top;spacingLeft=4;spacingRight=4;overflow=hidden;rotatable=0;points=[[0,0.5],[1,0.5]];portConstraint=eastwest;whiteSpace=wrap;html=1;" parent="bWB5HU2DyL7P9xEXCVta-12" vertex="1"><mxGeometry y="78" width="210" height="26" as="geometry"/></mxCell><mxCell id="tcx8inSMVFt6JUJdeJ5o-1" value="+ conteudo: string" style="text;strokeColor=none;fillColor=none;align=left;verticalAlign=top;spacingLeft=4;spacingRight=4;overflow=hidden;rotatable=0;points=[[0,0.5],[1,0.5]];portConstraint=eastwest;whiteSpace=wrap;html=1;" parent="bWB5HU2DyL7P9xEXCVta-12" vertex="1"><mxGeometry y="104" width="210" height="26" as="geometry"/></mxCell><mxCell id="tcx8inSMVFt6JUJdeJ5o-4" value="+ remetente: contato" style="text;strokeColor=none;fillColor=none;align=left;verticalAlign=top;spacingLeft=4;spacingRight=4;overflow=hidden;rotatable=0;points=[[0,0.5],[1,0.5]];portConstraint=eastwest;whiteSpace=wrap;html=1;" parent="bWB5HU2DyL7P9xEXCVta-12" vertex="1"><mxGeometry y="130" width="210" height="26" as="geometry"/></mxCell><mxCell id="tcx8inSMVFt6JUJdeJ5o-3" value="+ lista_destinatarios: List&amp;lt;contato&amp;gt;" style="text;strokeColor=none;fillColor=none;align=left;verticalAlign=top;spacingLeft=4;spacingRight=4;overflow=hidden;rotatable=0;points=[[0,0.5],[1,0.5]];portConstraint=eastwest;whiteSpace=wrap;html=1;" parent="bWB5HU2DyL7P9xEXCVta-12" vertex="1"><mxGeometry y="156" width="210" height="26" as="geometry"/></mxCell><mxCell id="tcx8inSMVFt6JUJdeJ5o-2" value="+ lista_anexos: List&amp;lt;anexo&amp;gt;" style="text;strokeColor=none;fillColor=none;align=left;verticalAlign=top;spacingLeft=4;spacingRight=4;overflow=hidden;rotatable=0;points=[[0,0.5],[1,0.5]];portConstraint=eastwest;whiteSpace=wrap;html=1;" parent="bWB5HU2DyL7P9xEXCVta-12" vertex="1"><mxGeometry y="182" width="210" height="26" as="geometry"/></mxCell><mxCell id="bWB5HU2DyL7P9xEXCVta-42" style="edgeStyle=orthogonalEdgeStyle;rounded=0;orthogonalLoop=1;jettySize=auto;html=1;entryX=-0.013;entryY=0.195;entryDx=0;entryDy=0;entryPerimeter=0;" parent="1" source="tcx8inSMVFt6JUJdeJ5o-2" target="bWB5HU2DyL7P9xEXCVta-40" edge="1"><mxGeometry relative="1" as="geometry"/></mxCell><mxCell id="bWB5HU2DyL7P9xEXCVta-16" value="contato" style="swimlane;fontStyle=0;childLayout=stackLayout;horizontal=1;startSize=26;fillColor=none;horizontalStack=0;resizeParent=1;resizeParentMax=0;resizeLast=0;collapsible=1;marginBottom=0;whiteSpace=wrap;html=1;" parent="1" vertex="1"><mxGeometry x="680" y="116" width="140" height="182" as="geometry"/></mxCell><mxCell id="I4EgJCwwATL2IRZ8oYYQ-4" value="+ id_contato: int" style="text;strokeColor=none;fillColor=none;align=left;verticalAlign=top;spacingLeft=4;spacingRight=4;overflow=hidden;rotatable=0;points=[[0,0.5],[1,0.5]];portConstraint=eastwest;whiteSpace=wrap;html=1;" parent="bWB5HU2DyL7P9xEXCVta-16" vertex="1"><mxGeometry y="26" width="140" height="26" as="geometry"/></mxCell><mxCell id="bWB5HU2DyL7P9xEXCVta-17" value="+ nome: string" style="text;strokeColor=none;fillColor=none;align=left;verticalAlign=top;spacingLeft=4;spacingRight=4;overflow=hidden;rotatable=0;points=[[0,0.5],[1,0.5]];portConstraint=eastwest;whiteSpace=wrap;html=1;" parent="bWB5HU2DyL7P9xEXCVta-16" vertex="1"><mxGeometry y="52" width="140" height="26" as="geometry"/></mxCell><mxCell id="bWB5HU2DyL7P9xEXCVta-18" value="+ email: string" style="text;strokeColor=none;fillColor=none;align=left;verticalAlign=top;spacingLeft=4;spacingRight=4;overflow=hidden;rotatable=0;points=[[0,0.5],[1,0.5]];portConstraint=eastwest;whiteSpace=wrap;html=1;" parent="bWB5HU2DyL7P9xEXCVta-16" vertex="1"><mxGeometry y="78" width="140" height="26" as="geometry"/></mxCell><mxCell id="I4EgJCwwATL2IRZ8oYYQ-2" value="+ sexo: char" style="text;strokeColor=none;fillColor=none;align=left;verticalAlign=top;spacingLeft=4;spacingRight=4;overflow=hidden;rotatable=0;points=[[0,0.5],[1,0.5]];portConstraint=eastwest;whiteSpace=wrap;html=1;" parent="bWB5HU2DyL7P9xEXCVta-16" vertex="1"><mxGeometry y="104" width="140" height="26" as="geometry"/></mxCell><mxCell id="I4EgJCwwATL2IRZ8oYYQ-1" value="+ telefone: string" style="text;strokeColor=none;fillColor=none;align=left;verticalAlign=top;spacingLeft=4;spacingRight=4;overflow=hidden;rotatable=0;points=[[0,0.5],[1,0.5]];portConstraint=eastwest;whiteSpace=wrap;html=1;" parent="bWB5HU2DyL7P9xEXCVta-16" vertex="1"><mxGeometry y="130" width="140" height="26" as="geometry"/></mxCell><mxCell id="bWB5HU2DyL7P9xEXCVta-19" value="+ endereco: string" style="text;strokeColor=none;fillColor=none;align=left;verticalAlign=top;spacingLeft=4;spacingRight=4;overflow=hidden;rotatable=0;points=[[0,0.5],[1,0.5]];portConstraint=eastwest;whiteSpace=wrap;html=1;" parent="bWB5HU2DyL7P9xEXCVta-16" vertex="1"><mxGeometry y="156" width="140" height="26" as="geometry"/></mxCell><mxCell id="bWB5HU2DyL7P9xEXCVta-38" value="anexo" style="swimlane;fontStyle=0;childLayout=stackLayout;horizontal=1;startSize=26;fillColor=none;horizontalStack=0;resizeParent=1;resizeParentMax=0;resizeLast=0;collapsible=1;marginBottom=0;whiteSpace=wrap;html=1;" parent="1" vertex="1"><mxGeometry x="580" y="450" width="140" height="156" as="geometry"/></mxCell><mxCell id="I4EgJCwwATL2IRZ8oYYQ-5" value="+ id_anexo: int" style="text;strokeColor=none;fillColor=none;align=left;verticalAlign=top;spacingLeft=4;spacingRight=4;overflow=hidden;rotatable=0;points=[[0,0.5],[1,0.5]];portConstraint=eastwest;whiteSpace=wrap;html=1;" parent="bWB5HU2DyL7P9xEXCVta-38" vertex="1"><mxGeometry y="26" width="140" height="26" as="geometry"/></mxCell><mxCell id="bWB5HU2DyL7P9xEXCVta-39" value="+ nome_arq: string" style="text;strokeColor=none;fillColor=none;align=left;verticalAlign=top;spacingLeft=4;spacingRight=4;overflow=hidden;rotatable=0;points=[[0,0.5],[1,0.5]];portConstraint=eastwest;whiteSpace=wrap;html=1;" parent="bWB5HU2DyL7P9xEXCVta-38" vertex="1"><mxGeometry y="52" width="140" height="26" as="geometry"/></mxCell><mxCell id="bWB5HU2DyL7P9xEXCVta-40" value="+ tipo_arq: string" style="text;strokeColor=none;fillColor=none;align=left;verticalAlign=top;spacingLeft=4;spacingRight=4;overflow=hidden;rotatable=0;points=[[0,0.5],[1,0.5]];portConstraint=eastwest;whiteSpace=wrap;html=1;" parent="bWB5HU2DyL7P9xEXCVta-38" vertex="1"><mxGeometry y="78" width="140" height="26" as="geometry"/></mxCell><mxCell id="bWB5HU2DyL7P9xEXCVta-41" value="+ tamanho_mb: int" style="text;strokeColor=none;fillColor=none;align=left;verticalAlign=top;spacingLeft=4;spacingRight=4;overflow=hidden;rotatable=0;points=[[0,0.5],[1,0.5]];portConstraint=eastwest;whiteSpace=wrap;html=1;" parent="bWB5HU2DyL7P9xEXCVta-38" vertex="1"><mxGeometry y="104" width="140" height="26" as="geometry"/></mxCell><mxCell id="I4EgJCwwATL2IRZ8oYYQ-3" value="+ descricao: string" style="text;strokeColor=none;fillColor=none;align=left;verticalAlign=top;spacingLeft=4;spacingRight=4;overflow=hidden;rotatable=0;points=[[0,0.5],[1,0.5]];portConstraint=eastwest;whiteSpace=wrap;html=1;" parent="bWB5HU2DyL7P9xEXCVta-38" vertex="1"><mxGeometry y="130" width="140" height="26" as="geometry"/></mxCell><mxCell id="tcx8inSMVFt6JUJdeJ5o-5" style="edgeStyle=orthogonalEdgeStyle;rounded=0;orthogonalLoop=1;jettySize=auto;html=1;" parent="1" source="tcx8inSMVFt6JUJdeJ5o-4" target="bWB5HU2DyL7P9xEXCVta-16" edge="1"><mxGeometry relative="1" as="geometry"><mxPoint x="320" y="379" as="sourcePoint"/><mxPoint x="419" y="170" as="targetPoint"/></mxGeometry></mxCell><mxCell id="tcx8inSMVFt6JUJdeJ5o-22" style="edgeStyle=orthogonalEdgeStyle;rounded=0;orthogonalLoop=1;jettySize=auto;html=1;" parent="1" source="tcx8inSMVFt6JUJdeJ5o-3" target="bWB5HU2DyL7P9xEXCVta-16" edge="1"><mxGeometry relative="1" as="geometry"><mxPoint x="260" y="373" as="sourcePoint"/><mxPoint x="760" y="230" as="targetPoint"/></mxGeometry></mxCell><object label="&lt;p style=&quot;margin:0px;margin-top:4px;text-align:center;&quot;&gt;&lt;b&gt;Class ManutencaoEmail&lt;/b&gt;&lt;/p&gt;&lt;hr size=&quot;1&quot;&gt;&lt;p style=&quot;margin:0px;margin-left:4px;&quot;&gt;&lt;br&gt;&lt;/p&gt;&lt;hr size=&quot;1&quot;&gt;&lt;p style=&quot;margin:0px;margin-left:4px;&quot;&gt;&lt;br&gt;&lt;/p&gt;&lt;p style=&quot;margin:0px;margin-left:4px;&quot;&gt;+&amp;nbsp;SalvarEmail(): boolean&lt;/p&gt;&lt;p style=&quot;margin:0px;margin-left:4px;&quot;&gt;+ RemoverEmailRecebido(): boolean&lt;/p&gt;&lt;p style=&quot;margin:0px;margin-left:4px;&quot;&gt;+ ContarPorRemetente(Contato remetente): int&lt;/p&gt;&lt;p style=&quot;margin:0px;margin-left:4px;&quot;&gt;+ ContarEmails(): int&lt;/p&gt;&lt;p style=&quot;margin:0px;margin-left:4px;&quot;&gt;+ LsitarTodos(): List&amp;lt;email&amp;gt;&amp;nbsp;&lt;/p&gt;&lt;p style=&quot;margin:0px;margin-left:4px;&quot;&gt;+ ContarContemAssunto(String parteAssunto): int&lt;/p&gt;" ContarEmailPorRemetent="int" id="tcx8inSMVFt6JUJdeJ5o-27"><mxCell style="verticalAlign=top;align=left;overflow=fill;fontSize=12;fontFamily=Helvetica;html=1;whiteSpace=wrap;" parent="1" vertex="1"><mxGeometry x="-430" y="223" width="320" height="187" as="geometry"/></mxCell></object><mxCell id="3" value="MailMap" style="shape=module;align=left;spacingLeft=20;align=center;verticalAlign=top;" vertex="1" parent="1"><mxGeometry x="-220" y="-190" width="100" height="50" as="geometry"/></mxCell><mxCell id="4" value="dispatch" style="html=1;verticalAlign=bottom;endArrow=block;rounded=0;exitX=1;exitY=0.5;exitDx=0;exitDy=0;" edge="1" parent="1" source="3" target="5"><mxGeometry width="80" relative="1" as="geometry"><mxPoint x="-110" y="-165.5" as="sourcePoint"/><mxPoint x="-30" y="-165.5" as="targetPoint"/></mxGeometry></mxCell><mxCell id="5" value="SalvarEmail" style="rounded=1;whiteSpace=wrap;html=1;arcSize=40;fontColor=#000000;fillColor=#ffffc0;strokeColor=#ff0000;" vertex="1" parent="1"><mxGeometry x="25" y="-185" width="120" height="40" as="geometry"/></mxCell><mxCell id="8" value="ReceberEmails" style="rounded=1;whiteSpace=wrap;html=1;arcSize=40;fontColor=#000000;fillColor=#ffffc0;strokeColor=#ff0000;" vertex="1" parent="1"><mxGeometry x="25" y="-290" width="120" height="40" as="geometry"/></mxCell><mxCell id="9" value="ContarEmails" style="rounded=1;whiteSpace=wrap;html=1;arcSize=40;fontColor=#000000;fillColor=#ffffc0;strokeColor=#ff0000;" vertex="1" parent="1"><mxGeometry x="25" y="-90" width="120" height="40" as="geometry"/></mxCell><mxCell id="10" value="ContarEmailsPorRemetente" style="rounded=1;whiteSpace=wrap;html=1;arcSize=40;fontColor=#000000;fillColor=#ffffc0;strokeColor=#ff0000;" vertex="1" parent="1"><mxGeometry x="5" y="-10" width="160" height="40" as="geometry"/></mxCell><mxCell id="12" value="dispatch" style="html=1;verticalAlign=bottom;endArrow=block;rounded=0;exitX=1;exitY=0.5;exitDx=0;exitDy=0;entryX=0;entryY=0.5;entryDx=0;entryDy=0;" edge="1" parent="1" source="3" target="9"><mxGeometry width="80" relative="1" as="geometry"><mxPoint x="-110" y="-155" as="sourcePoint"/><mxPoint x="-30" y="-155" as="targetPoint"/></mxGeometry></mxCell><mxCell id="13" value="dispatch" style="html=1;verticalAlign=bottom;endArrow=block;rounded=0;exitX=1;exitY=0.5;exitDx=0;exitDy=0;entryX=0;entryY=0.5;entryDx=0;entryDy=0;" edge="1" parent="1" source="3" target="10"><mxGeometry width="80" relative="1" as="geometry"><mxPoint x="-140" y="39.5" as="sourcePoint"/><mxPoint x="-80" y="40" as="targetPoint"/></mxGeometry></mxCell><mxCell id="15" value="dispatch" style="html=1;verticalAlign=bottom;endArrow=block;rounded=0;exitX=1;exitY=0.5;exitDx=0;exitDy=0;entryX=0;entryY=0.25;entryDx=0;entryDy=0;" edge="1" parent="1" source="3" target="8"><mxGeometry width="80" relative="1" as="geometry"><mxPoint x="-90" y="-135" as="sourcePoint"/><mxPoint x="-10" y="-135" as="targetPoint"/></mxGeometry></mxCell><mxCell id="16" value="CriarListaPorAssunto" style="rounded=1;whiteSpace=wrap;html=1;arcSize=40;fontColor=#000000;fillColor=#ffffc0;strokeColor=#ff0000;" vertex="1" parent="1"><mxGeometry x="165" y="-250" width="160" height="40" as="geometry"/></mxCell><mxCell id="17" value="dispatch" style="html=1;verticalAlign=bottom;endArrow=block;rounded=0;exitX=1;exitY=0.5;exitDx=0;exitDy=0;entryX=0;entryY=0.5;entryDx=0;entryDy=0;" edge="1" parent="1" source="3" target="16"><mxGeometry width="80" relative="1" as="geometry"><mxPoint x="10" y="-140" as="sourcePoint"/><mxPoint x="90" y="-242.5" as="targetPoint"/></mxGeometry></mxCell><mxCell id="18" value="ExcluirEmailsPorData" style="rounded=1;whiteSpace=wrap;html=1;arcSize=40;fontColor=#000000;fillColor=#ffffc0;strokeColor=#ff0000;" vertex="1" parent="1"><mxGeometry x="175" y="-110" width="160" height="40" as="geometry"/></mxCell><mxCell id="19" value="dispatch" style="html=1;verticalAlign=bottom;endArrow=block;rounded=0;entryX=0;entryY=0.5;entryDx=0;entryDy=0;exitX=1;exitY=0.5;exitDx=0;exitDy=0;" edge="1" parent="1" target="18" source="3"><mxGeometry width="80" relative="1" as="geometry"><mxPoint x="-110" y="-150" as="sourcePoint"/><mxPoint x="90" y="-122.5" as="targetPoint"/></mxGeometry></mxCell><mxCell id="20" value="CriarListaRecebidosHoje" style="rounded=1;whiteSpace=wrap;html=1;arcSize=40;fontColor=#000000;fillColor=#ffffc0;strokeColor=#ff0000;" vertex="1" parent="1"><mxGeometry x="-40" y="110" width="160" height="40" as="geometry"/></mxCell><mxCell id="21" value="dispatch" style="html=1;verticalAlign=bottom;endArrow=block;rounded=0;entryX=0;entryY=0.5;entryDx=0;entryDy=0;exitX=1;exitY=0.5;exitDx=0;exitDy=0;" edge="1" parent="1" target="20" source="3"><mxGeometry width="80" relative="1" as="geometry"><mxPoint x="-120" y="-160" as="sourcePoint"/><mxPoint x="90" y="-32.5" as="targetPoint"/></mxGeometry></mxCell><mxCell id="22" value="CriarListaRecebidosHoje" style="rounded=1;whiteSpace=wrap;html=1;arcSize=40;fontColor=#000000;fillColor=#ffffc0;strokeColor=#ff0000;" vertex="1" parent="1"><mxGeometry x="5" y="50" width="160" height="40" as="geometry"/></mxCell><mxCell id="23" value="dispatch" style="html=1;verticalAlign=bottom;endArrow=block;rounded=0;entryX=0;entryY=0.5;entryDx=0;entryDy=0;exitX=1;exitY=0.5;exitDx=0;exitDy=0;" edge="1" parent="1" target="22" source="3"><mxGeometry width="80" relative="1" as="geometry"><mxPoint x="-120" y="-185" as="sourcePoint"/><mxPoint x="90" y="-77.5" as="targetPoint"/></mxGeometry></mxCell><mxCell id="24" value="ExcluirEmailsQueAssuntoContenha" style="rounded=1;whiteSpace=wrap;html=1;arcSize=40;fontColor=#000000;fillColor=#ffffc0;strokeColor=#ff0000;" vertex="1" parent="1"><mxGeometry x="-40" y="-410" width="250" height="35" as="geometry"/></mxCell><mxCell id="25" value="dispatch" style="html=1;verticalAlign=bottom;endArrow=block;rounded=0;entryX=0;entryY=0.5;entryDx=0;entryDy=0;exitX=1;exitY=0.5;exitDx=0;exitDy=0;" edge="1" parent="1" target="24" source="3"><mxGeometry width="80" relative="1" as="geometry"><mxPoint x="-335" y="-470" as="sourcePoint"/><mxPoint x="-125" y="-427.5" as="targetPoint"/></mxGeometry></mxCell><mxCell id="26" value="ExcluirEmailsPorEnderecoAntesDe" style="rounded=1;whiteSpace=wrap;html=1;arcSize=40;fontColor=#000000;fillColor=#ffffc0;strokeColor=#ff0000;" vertex="1" parent="1"><mxGeometry x="-40" y="-350" width="250" height="35" as="geometry"/></mxCell><mxCell id="27" value="dispatch" style="html=1;verticalAlign=bottom;endArrow=block;rounded=0;entryX=0;entryY=0.75;entryDx=0;entryDy=0;" edge="1" parent="1" target="26"><mxGeometry width="80" relative="1" as="geometry"><mxPoint x="-120" y="-160" as="sourcePoint"/><mxPoint x="-30" y="-382.5" as="targetPoint"/></mxGeometry></mxCell></root></mxGraphModel></diagram><diagram id="kC9KvIrxQ1ybHJjklsz6" name="Página-2">&#xa;    <mxGraphModel grid="1" page="1" gridSize="10" guides="1" tooltips="1" connect="1" arrows="1" fold="1" pageScale="1" pageWidth="827" pageHeight="1169" math="0" shadow="0">&#xa;      <root>&#xa;        <mxCell id="0"/>&#xa;        <mxCell id="1" parent="0"/>&#xa;        <mxCell id="PjCL33VSLlb1CDlnu6tP-1" value="&lt;h1&gt;Problema&lt;/h1&gt;&lt;p&gt;Desenvolver um sistema que emita para o usuário, faturas, como também permita a compra de pacotes de uma assinatura de TV. Para cada pacote adicionado, deve-se validar se o cliente está em dias com o pagamento da fatura.&lt;br&gt;O usuário pode pedir assistência técnica para a operadora, mas o cliente deverá estar em dias.&lt;br&gt;O usuário pode excluir um pacotes, porém após carência do mesmo.&lt;/p&gt;" style="text;html=1;strokeColor=none;fillColor=none;spacing=5;spacingTop=-20;whiteSpace=wrap;overflow=hidden;rounded=0;" vertex="1" parent="1">&#xa;          <mxGeometry x="70" y="20" width="340" height="180" as="geometry"/>&#xa;        </mxCell>&#xa;        <mxCell id="PjCL33VSLlb1CDlnu6tP-2" value="Fatura" style="html=1;whiteSpace=wrap;" vertex="1" parent="1">&#xa;          <mxGeometry x="380" y="390" width="110" height="50" as="geometry"/>&#xa;        </mxCell>&#xa;        <mxCell id="PjCL33VSLlb1CDlnu6tP-3" value="Pacote" style="html=1;whiteSpace=wrap;" vertex="1" parent="1">&#xa;          <mxGeometry x="380" y="190" width="110" height="50" as="geometry"/>&#xa;        </mxCell>&#xa;        <mxCell id="PjCL33VSLlb1CDlnu6tP-5" style="edgeStyle=orthogonalEdgeStyle;rounded=0;orthogonalLoop=1;jettySize=auto;html=1;entryX=0;entryY=0.5;entryDx=0;entryDy=0;" edge="1" parent="1" source="PjCL33VSLlb1CDlnu6tP-4" target="PjCL33VSLlb1CDlnu6tP-3">&#xa;          <mxGeometry relative="1" as="geometry"/>&#xa;        </mxCell>&#xa;        <mxCell id="PjCL33VSLlb1CDlnu6tP-6" style="edgeStyle=orthogonalEdgeStyle;rounded=0;orthogonalLoop=1;jettySize=auto;html=1;entryX=0;entryY=0.6;entryDx=0;entryDy=0;entryPerimeter=0;" edge="1" parent="1" source="PjCL33VSLlb1CDlnu6tP-4" target="PjCL33VSLlb1CDlnu6tP-2">&#xa;          <mxGeometry relative="1" as="geometry"/>&#xa;        </mxCell>&#xa;        <mxCell id="PjCL33VSLlb1CDlnu6tP-39" style="edgeStyle=orthogonalEdgeStyle;rounded=0;orthogonalLoop=1;jettySize=auto;html=1;entryX=0;entryY=0.5;entryDx=0;entryDy=0;" edge="1" parent="1" source="PjCL33VSLlb1CDlnu6tP-4" target="PjCL33VSLlb1CDlnu6tP-38">&#xa;          <mxGeometry relative="1" as="geometry"/>&#xa;        </mxCell>&#xa;        <mxCell id="PjCL33VSLlb1CDlnu6tP-4" value="Usuário" style="html=1;whiteSpace=wrap;" vertex="1" parent="1">&#xa;          <mxGeometry x="100" y="300" width="110" height="50" as="geometry"/>&#xa;        </mxCell>&#xa;        <mxCell id="PjCL33VSLlb1CDlnu6tP-13" style="edgeStyle=orthogonalEdgeStyle;rounded=0;orthogonalLoop=1;jettySize=auto;html=1;entryX=0;entryY=0.5;entryDx=0;entryDy=0;" edge="1" parent="1" source="PjCL33VSLlb1CDlnu6tP-9" target="PjCL33VSLlb1CDlnu6tP-11">&#xa;          <mxGeometry relative="1" as="geometry"/>&#xa;        </mxCell>&#xa;        <mxCell id="PjCL33VSLlb1CDlnu6tP-16" style="edgeStyle=orthogonalEdgeStyle;rounded=0;orthogonalLoop=1;jettySize=auto;html=1;entryX=0;entryY=0.5;entryDx=0;entryDy=0;" edge="1" parent="1" source="PjCL33VSLlb1CDlnu6tP-9" target="PjCL33VSLlb1CDlnu6tP-14">&#xa;          <mxGeometry relative="1" as="geometry"/>&#xa;        </mxCell>&#xa;        <mxCell id="PjCL33VSLlb1CDlnu6tP-19" style="edgeStyle=orthogonalEdgeStyle;rounded=0;orthogonalLoop=1;jettySize=auto;html=1;entryX=0;entryY=0.5;entryDx=0;entryDy=0;" edge="1" parent="1" source="PjCL33VSLlb1CDlnu6tP-9" target="PjCL33VSLlb1CDlnu6tP-18">&#xa;          <mxGeometry relative="1" as="geometry"/>&#xa;        </mxCell>&#xa;        <mxCell id="PjCL33VSLlb1CDlnu6tP-23" style="edgeStyle=orthogonalEdgeStyle;rounded=0;orthogonalLoop=1;jettySize=auto;html=1;entryX=0;entryY=0.5;entryDx=0;entryDy=0;" edge="1" parent="1" source="PjCL33VSLlb1CDlnu6tP-9" target="PjCL33VSLlb1CDlnu6tP-21">&#xa;          <mxGeometry relative="1" as="geometry"/>&#xa;        </mxCell>&#xa;        <mxCell id="PjCL33VSLlb1CDlnu6tP-57" style="edgeStyle=orthogonalEdgeStyle;rounded=0;orthogonalLoop=1;jettySize=auto;html=1;entryX=1.066;entryY=0.397;entryDx=0;entryDy=0;entryPerimeter=0;" edge="1" parent="1" source="PjCL33VSLlb1CDlnu6tP-9" target="PjCL33VSLlb1CDlnu6tP-56">&#xa;          <mxGeometry relative="1" as="geometry"/>&#xa;        </mxCell>&#xa;        <mxCell id="PjCL33VSLlb1CDlnu6tP-9" value="Emissor de Fatura" style="shape=module;align=left;spacingLeft=20;align=center;verticalAlign=top;whiteSpace=wrap;html=1;" vertex="1" parent="1">&#xa;          <mxGeometry x="-100" y="505" width="100" height="50" as="geometry"/>&#xa;        </mxCell>&#xa;        <mxCell id="PjCL33VSLlb1CDlnu6tP-11" value="" style="ellipse;whiteSpace=wrap;html=1;aspect=fixed;" vertex="1" parent="1">&#xa;          <mxGeometry x="40" y="460" width="20" height="20" as="geometry"/>&#xa;        </mxCell>&#xa;        <mxCell id="PjCL33VSLlb1CDlnu6tP-12" value="Emitir fatura de usuário" style="text;html=1;strokeColor=none;fillColor=none;align=center;verticalAlign=middle;whiteSpace=wrap;rounded=0;" vertex="1" parent="1">&#xa;          <mxGeometry x="80" y="455" width="90" height="30" as="geometry"/>&#xa;        </mxCell>&#xa;        <mxCell id="PjCL33VSLlb1CDlnu6tP-14" value="" style="ellipse;whiteSpace=wrap;html=1;aspect=fixed;" vertex="1" parent="1">&#xa;          <mxGeometry x="40" y="541" width="20" height="20" as="geometry"/>&#xa;        </mxCell>&#xa;        <mxCell id="PjCL33VSLlb1CDlnu6tP-15" value="Listar Faturas Usuário" style="text;html=1;strokeColor=none;fillColor=none;align=center;verticalAlign=middle;whiteSpace=wrap;rounded=0;" vertex="1" parent="1">&#xa;          <mxGeometry x="80" y="536" width="90" height="30" as="geometry"/>&#xa;        </mxCell>&#xa;        <mxCell id="PjCL33VSLlb1CDlnu6tP-18" value="" style="ellipse;whiteSpace=wrap;html=1;aspect=fixed;" vertex="1" parent="1">&#xa;          <mxGeometry x="40" y="610" width="20" height="20" as="geometry"/>&#xa;        </mxCell>&#xa;        <mxCell id="PjCL33VSLlb1CDlnu6tP-20" value="Lista de pacotes do usuário" style="text;html=1;strokeColor=#FF2B0A;fillColor=none;align=center;verticalAlign=middle;whiteSpace=wrap;rounded=0;" vertex="1" parent="1">&#xa;          <mxGeometry x="80" y="605" width="90" height="30" as="geometry"/>&#xa;        </mxCell>&#xa;        <mxCell id="PjCL33VSLlb1CDlnu6tP-21" value="" style="ellipse;whiteSpace=wrap;html=1;aspect=fixed;" vertex="1" parent="1">&#xa;          <mxGeometry x="40" y="655" width="20" height="20" as="geometry"/>&#xa;        </mxCell>&#xa;        <mxCell id="PjCL33VSLlb1CDlnu6tP-22" value="Emitir situação Usuário" style="text;html=1;strokeColor=none;fillColor=none;align=center;verticalAlign=middle;whiteSpace=wrap;rounded=0;" vertex="1" parent="1">&#xa;          <mxGeometry x="80" y="650" width="90" height="30" as="geometry"/>&#xa;        </mxCell>&#xa;        <mxCell id="PjCL33VSLlb1CDlnu6tP-28" style="edgeStyle=orthogonalEdgeStyle;rounded=0;orthogonalLoop=1;jettySize=auto;html=1;entryX=1;entryY=0.5;entryDx=0;entryDy=0;" edge="1" parent="1" source="PjCL33VSLlb1CDlnu6tP-24" target="PjCL33VSLlb1CDlnu6tP-26">&#xa;          <mxGeometry relative="1" as="geometry"/>&#xa;        </mxCell>&#xa;        <mxCell id="PjCL33VSLlb1CDlnu6tP-31" style="edgeStyle=orthogonalEdgeStyle;rounded=0;orthogonalLoop=1;jettySize=auto;html=1;entryX=1;entryY=0.5;entryDx=0;entryDy=0;" edge="1" parent="1" source="PjCL33VSLlb1CDlnu6tP-24" target="PjCL33VSLlb1CDlnu6tP-29">&#xa;          <mxGeometry relative="1" as="geometry"/>&#xa;        </mxCell>&#xa;        <mxCell id="PjCL33VSLlb1CDlnu6tP-34" style="edgeStyle=orthogonalEdgeStyle;rounded=0;orthogonalLoop=1;jettySize=auto;html=1;" edge="1" parent="1" source="PjCL33VSLlb1CDlnu6tP-24" target="PjCL33VSLlb1CDlnu6tP-32">&#xa;          <mxGeometry relative="1" as="geometry"/>&#xa;        </mxCell>&#xa;        <mxCell id="PjCL33VSLlb1CDlnu6tP-36" style="edgeStyle=orthogonalEdgeStyle;rounded=0;orthogonalLoop=1;jettySize=auto;html=1;entryX=1;entryY=0.5;entryDx=0;entryDy=0;" edge="1" parent="1" source="PjCL33VSLlb1CDlnu6tP-24" target="PjCL33VSLlb1CDlnu6tP-35">&#xa;          <mxGeometry relative="1" as="geometry"/>&#xa;        </mxCell>&#xa;        <mxCell id="PjCL33VSLlb1CDlnu6tP-59" style="edgeStyle=orthogonalEdgeStyle;rounded=0;orthogonalLoop=1;jettySize=auto;html=1;" edge="1" parent="1" source="PjCL33VSLlb1CDlnu6tP-24" target="PjCL33VSLlb1CDlnu6tP-58">&#xa;          <mxGeometry relative="1" as="geometry"/>&#xa;        </mxCell>&#xa;        <mxCell id="PjCL33VSLlb1CDlnu6tP-24" value="Pacotes" style="shape=module;align=left;spacingLeft=20;align=center;verticalAlign=top;whiteSpace=wrap;html=1;" vertex="1" parent="1">&#xa;          <mxGeometry x="916" y="580" width="100" height="50" as="geometry"/>&#xa;        </mxCell>&#xa;        <mxCell id="PjCL33VSLlb1CDlnu6tP-26" value="" style="ellipse;whiteSpace=wrap;html=1;aspect=fixed;" vertex="1" parent="1">&#xa;          <mxGeometry x="836" y="510" width="20" height="20" as="geometry"/>&#xa;        </mxCell>&#xa;        <mxCell id="PjCL33VSLlb1CDlnu6tP-27" value="Listar Pacotes" style="text;html=1;strokeColor=none;fillColor=none;align=center;verticalAlign=middle;whiteSpace=wrap;rounded=0;" vertex="1" parent="1">&#xa;          <mxGeometry x="740" y="505" width="90" height="30" as="geometry"/>&#xa;        </mxCell>&#xa;        <mxCell id="PjCL33VSLlb1CDlnu6tP-29" value="" style="ellipse;whiteSpace=wrap;html=1;aspect=fixed;" vertex="1" parent="1">&#xa;          <mxGeometry x="836" y="566" width="20" height="20" as="geometry"/>&#xa;        </mxCell>&#xa;        <mxCell id="PjCL33VSLlb1CDlnu6tP-30" value="Contratar Pacote" style="text;html=1;strokeColor=none;fillColor=none;align=center;verticalAlign=middle;whiteSpace=wrap;rounded=0;" vertex="1" parent="1">&#xa;          <mxGeometry x="746" y="556" width="90" height="30" as="geometry"/>&#xa;        </mxCell>&#xa;        <mxCell id="PjCL33VSLlb1CDlnu6tP-32" value="" style="ellipse;whiteSpace=wrap;html=1;aspect=fixed;" vertex="1" parent="1">&#xa;          <mxGeometry x="836" y="616" width="20" height="20" as="geometry"/>&#xa;        </mxCell>&#xa;        <mxCell id="PjCL33VSLlb1CDlnu6tP-33" value="Excluir&lt;br&gt;Pacote do usuário" style="text;html=1;strokeColor=none;fillColor=none;align=center;verticalAlign=middle;whiteSpace=wrap;rounded=0;" vertex="1" parent="1">&#xa;          <mxGeometry x="746" y="606" width="90" height="30" as="geometry"/>&#xa;        </mxCell>&#xa;        <mxCell id="PjCL33VSLlb1CDlnu6tP-35" value="" style="ellipse;whiteSpace=wrap;html=1;aspect=fixed;" vertex="1" parent="1">&#xa;          <mxGeometry x="836" y="660" width="20" height="20" as="geometry"/>&#xa;        </mxCell>&#xa;        <mxCell id="PjCL33VSLlb1CDlnu6tP-37" value="Listar Pacotes do Usuário" style="text;html=1;strokeColor=none;fillColor=none;align=center;verticalAlign=middle;whiteSpace=wrap;rounded=0;" vertex="1" parent="1">&#xa;          <mxGeometry x="740" y="655" width="90" height="30" as="geometry"/>&#xa;        </mxCell>&#xa;        <mxCell id="PjCL33VSLlb1CDlnu6tP-38" value="Assistência Técnica" style="html=1;whiteSpace=wrap;" vertex="1" parent="1">&#xa;          <mxGeometry x="480" y="300" width="110" height="50" as="geometry"/>&#xa;        </mxCell>&#xa;        <mxCell id="PjCL33VSLlb1CDlnu6tP-49" style="edgeStyle=orthogonalEdgeStyle;rounded=0;orthogonalLoop=1;jettySize=auto;html=1;entryX=0.5;entryY=0;entryDx=0;entryDy=0;" edge="1" parent="1" source="PjCL33VSLlb1CDlnu6tP-40" target="PjCL33VSLlb1CDlnu6tP-46">&#xa;          <mxGeometry relative="1" as="geometry"/>&#xa;        </mxCell>&#xa;        <mxCell id="PjCL33VSLlb1CDlnu6tP-40" value="&lt;div style=&quot;box-sizing:border-box;width:100%;background:#e4e4e4;padding:2px;&quot;&gt;Fatura&lt;/div&gt;&lt;table style=&quot;width:100%;font-size:1em;&quot; cellpadding=&quot;2&quot; cellspacing=&quot;0&quot;&gt;&lt;tbody&gt;&lt;tr&gt;&lt;td&gt;PK&lt;/td&gt;&lt;td&gt;uniqueId&lt;/td&gt;&lt;/tr&gt;&lt;tr&gt;&lt;td&gt;FK1&lt;/td&gt;&lt;td&gt;foreignKey&lt;/td&gt;&lt;/tr&gt;&lt;tr&gt;&lt;td&gt;&lt;/td&gt;&lt;td&gt;fieldname&lt;/td&gt;&lt;/tr&gt;&lt;/tbody&gt;&lt;/table&gt;" style="verticalAlign=top;align=left;overflow=fill;html=1;whiteSpace=wrap;" vertex="1" parent="1">&#xa;          <mxGeometry x="-380" y="730" width="120" height="80" as="geometry"/>&#xa;        </mxCell>&#xa;        <mxCell id="PjCL33VSLlb1CDlnu6tP-44" style="edgeStyle=orthogonalEdgeStyle;rounded=0;orthogonalLoop=1;jettySize=auto;html=1;entryX=0;entryY=0.5;entryDx=0;entryDy=0;" edge="1" parent="1" source="PjCL33VSLlb1CDlnu6tP-41" target="PjCL33VSLlb1CDlnu6tP-43">&#xa;          <mxGeometry relative="1" as="geometry"/>&#xa;        </mxCell>&#xa;        <mxCell id="PjCL33VSLlb1CDlnu6tP-47" style="edgeStyle=orthogonalEdgeStyle;rounded=0;orthogonalLoop=1;jettySize=auto;html=1;entryX=0.5;entryY=1;entryDx=0;entryDy=0;" edge="1" parent="1" source="PjCL33VSLlb1CDlnu6tP-41" target="PjCL33VSLlb1CDlnu6tP-46">&#xa;          <mxGeometry relative="1" as="geometry"/>&#xa;        </mxCell>&#xa;        <mxCell id="PjCL33VSLlb1CDlnu6tP-41" value="&lt;div style=&quot;box-sizing:border-box;width:100%;background:#e4e4e4;padding:2px;&quot;&gt;Usuário&lt;/div&gt;&lt;table style=&quot;width:100%;font-size:1em;&quot; cellpadding=&quot;2&quot; cellspacing=&quot;0&quot;&gt;&lt;tbody&gt;&lt;tr&gt;&lt;td&gt;PK&lt;/td&gt;&lt;td&gt;uniqueId&lt;/td&gt;&lt;/tr&gt;&lt;tr&gt;&lt;td&gt;FK1&lt;/td&gt;&lt;td&gt;foreignKey&lt;/td&gt;&lt;/tr&gt;&lt;tr&gt;&lt;td&gt;&lt;/td&gt;&lt;td&gt;fieldname&lt;/td&gt;&lt;/tr&gt;&lt;/tbody&gt;&lt;/table&gt;" style="verticalAlign=top;align=left;overflow=fill;html=1;whiteSpace=wrap;" vertex="1" parent="1">&#xa;          <mxGeometry x="-340" y="985" width="120" height="80" as="geometry"/>&#xa;        </mxCell>&#xa;        <mxCell id="PjCL33VSLlb1CDlnu6tP-48" style="edgeStyle=orthogonalEdgeStyle;rounded=0;orthogonalLoop=1;jettySize=auto;html=1;entryX=0.995;entryY=0.573;entryDx=0;entryDy=0;entryPerimeter=0;" edge="1" parent="1" source="PjCL33VSLlb1CDlnu6tP-42" target="PjCL33VSLlb1CDlnu6tP-43">&#xa;          <mxGeometry relative="1" as="geometry"/>&#xa;        </mxCell>&#xa;        <mxCell id="PjCL33VSLlb1CDlnu6tP-42" value="&lt;div style=&quot;box-sizing:border-box;width:100%;background:#e4e4e4;padding:2px;&quot;&gt;Pacote&lt;/div&gt;&lt;table style=&quot;width:100%;font-size:1em;&quot; cellpadding=&quot;2&quot; cellspacing=&quot;0&quot;&gt;&lt;tbody&gt;&lt;tr&gt;&lt;td&gt;PK&lt;/td&gt;&lt;td&gt;uniqueId&lt;/td&gt;&lt;/tr&gt;&lt;tr&gt;&lt;td&gt;FK1&lt;/td&gt;&lt;td&gt;foreignKey&lt;/td&gt;&lt;/tr&gt;&lt;tr&gt;&lt;td&gt;&lt;/td&gt;&lt;td&gt;fieldname&lt;/td&gt;&lt;/tr&gt;&lt;/tbody&gt;&lt;/table&gt;" style="verticalAlign=top;align=left;overflow=fill;html=1;whiteSpace=wrap;" vertex="1" parent="1">&#xa;          <mxGeometry x="-60" y="825" width="120" height="80" as="geometry"/>&#xa;        </mxCell>&#xa;        <mxCell id="PjCL33VSLlb1CDlnu6tP-43" value="&lt;div style=&quot;box-sizing:border-box;width:100%;background:#e4e4e4;padding:2px;&quot;&gt;Pacote_usuario&lt;/div&gt;&lt;table style=&quot;width:100%;font-size:1em;&quot; cellpadding=&quot;2&quot; cellspacing=&quot;0&quot;&gt;&lt;tbody&gt;&lt;tr&gt;&lt;td&gt;PK&lt;/td&gt;&lt;td&gt;uniqueId&lt;/td&gt;&lt;/tr&gt;&lt;tr&gt;&lt;td&gt;FK1&lt;/td&gt;&lt;td&gt;foreignKey&lt;/td&gt;&lt;/tr&gt;&lt;tr&gt;&lt;td&gt;&lt;/td&gt;&lt;td&gt;fieldname&lt;/td&gt;&lt;/tr&gt;&lt;/tbody&gt;&lt;/table&gt;" style="verticalAlign=top;align=left;overflow=fill;html=1;whiteSpace=wrap;" vertex="1" parent="1">&#xa;          <mxGeometry x="-120" y="965" width="120" height="80" as="geometry"/>&#xa;        </mxCell>&#xa;        <mxCell id="PjCL33VSLlb1CDlnu6tP-46" value="&lt;div style=&quot;box-sizing:border-box;width:100%;background:#e4e4e4;padding:2px;&quot;&gt;Fatura_usuario&lt;/div&gt;&lt;table style=&quot;width:100%;font-size:1em;&quot; cellpadding=&quot;2&quot; cellspacing=&quot;0&quot;&gt;&lt;tbody&gt;&lt;tr&gt;&lt;td&gt;PK&lt;/td&gt;&lt;td&gt;uniqueId&lt;/td&gt;&lt;/tr&gt;&lt;tr&gt;&lt;td&gt;FK1&lt;/td&gt;&lt;td&gt;foreignKey&lt;/td&gt;&lt;/tr&gt;&lt;tr&gt;&lt;td&gt;&lt;/td&gt;&lt;td&gt;fieldname&lt;/td&gt;&lt;/tr&gt;&lt;/tbody&gt;&lt;/table&gt;" style="verticalAlign=top;align=left;overflow=fill;html=1;whiteSpace=wrap;" vertex="1" parent="1">&#xa;          <mxGeometry x="-290" y="855" width="120" height="80" as="geometry"/>&#xa;        </mxCell>&#xa;        <mxCell id="PjCL33VSLlb1CDlnu6tP-50" value="&lt;div style=&quot;box-sizing:border-box;width:100%;background:#e4e4e4;padding:2px;&quot;&gt;Pacote&lt;/div&gt;&lt;table style=&quot;width:100%;font-size:1em;&quot; cellpadding=&quot;2&quot; cellspacing=&quot;0&quot;&gt;&lt;tbody&gt;&lt;tr&gt;&lt;td&gt;PK&lt;/td&gt;&lt;td&gt;uniqueId&lt;/td&gt;&lt;/tr&gt;&lt;tr&gt;&lt;td&gt;FK1&lt;/td&gt;&lt;td&gt;foreignKey&lt;/td&gt;&lt;/tr&gt;&lt;tr&gt;&lt;td&gt;&lt;/td&gt;&lt;td&gt;fieldname&lt;/td&gt;&lt;/tr&gt;&lt;/tbody&gt;&lt;/table&gt;" style="verticalAlign=top;align=left;overflow=fill;html=1;whiteSpace=wrap;" vertex="1" parent="1">&#xa;          <mxGeometry x="790" y="950" width="134" height="75" as="geometry"/>&#xa;        </mxCell>&#xa;        <mxCell id="PjCL33VSLlb1CDlnu6tP-51" value="&lt;div style=&quot;box-sizing:border-box;width:100%;background:#e4e4e4;padding:2px;&quot;&gt;Usuário&lt;/div&gt;&lt;table style=&quot;width:100%;font-size:1em;&quot; cellpadding=&quot;2&quot; cellspacing=&quot;0&quot;&gt;&lt;tbody&gt;&lt;tr&gt;&lt;td&gt;PK&lt;/td&gt;&lt;td&gt;uniqueId&lt;/td&gt;&lt;/tr&gt;&lt;tr&gt;&lt;td&gt;FK1&lt;/td&gt;&lt;td&gt;foreignKey&lt;/td&gt;&lt;/tr&gt;&lt;tr&gt;&lt;td&gt;&lt;/td&gt;&lt;td&gt;fieldname&lt;/td&gt;&lt;/tr&gt;&lt;/tbody&gt;&lt;/table&gt;" style="verticalAlign=top;align=left;overflow=fill;html=1;whiteSpace=wrap;" vertex="1" parent="1">&#xa;          <mxGeometry x="1049" y="1080" width="134" height="75" as="geometry"/>&#xa;        </mxCell>&#xa;        <mxCell id="PjCL33VSLlb1CDlnu6tP-53" style="edgeStyle=orthogonalEdgeStyle;rounded=0;orthogonalLoop=1;jettySize=auto;html=1;" edge="1" parent="1" source="PjCL33VSLlb1CDlnu6tP-52" target="PjCL33VSLlb1CDlnu6tP-51">&#xa;          <mxGeometry relative="1" as="geometry"/>&#xa;        </mxCell>&#xa;        <mxCell id="PjCL33VSLlb1CDlnu6tP-54" style="edgeStyle=orthogonalEdgeStyle;rounded=0;orthogonalLoop=1;jettySize=auto;html=1;" edge="1" parent="1" source="PjCL33VSLlb1CDlnu6tP-52" target="PjCL33VSLlb1CDlnu6tP-50">&#xa;          <mxGeometry relative="1" as="geometry"/>&#xa;        </mxCell>&#xa;        <mxCell id="PjCL33VSLlb1CDlnu6tP-52" value="&lt;div style=&quot;box-sizing:border-box;width:100%;background:#e4e4e4;padding:2px;&quot;&gt;Pacote_Usuario&lt;/div&gt;&lt;table style=&quot;width:100%;font-size:1em;&quot; cellpadding=&quot;2&quot; cellspacing=&quot;0&quot;&gt;&lt;tbody&gt;&lt;tr&gt;&lt;td&gt;PK&lt;/td&gt;&lt;td&gt;uniqueId&lt;/td&gt;&lt;/tr&gt;&lt;tr&gt;&lt;td&gt;FK1&lt;/td&gt;&lt;td&gt;foreignKey&lt;/td&gt;&lt;/tr&gt;&lt;tr&gt;&lt;td&gt;&lt;/td&gt;&lt;td&gt;fieldname&lt;/td&gt;&lt;/tr&gt;&lt;/tbody&gt;&lt;/table&gt;" style="verticalAlign=top;align=left;overflow=fill;html=1;whiteSpace=wrap;" vertex="1" parent="1">&#xa;          <mxGeometry x="980" y="940" width="134" height="75" as="geometry"/>&#xa;        </mxCell>&#xa;        <mxCell id="PjCL33VSLlb1CDlnu6tP-55" value="&lt;div style=&quot;box-sizing:border-box;width:100%;background:#e4e4e4;padding:2px;&quot;&gt;Canal&lt;/div&gt;&lt;table style=&quot;width:100%;font-size:1em;&quot; cellpadding=&quot;2&quot; cellspacing=&quot;0&quot;&gt;&lt;tbody&gt;&lt;tr&gt;&lt;td&gt;PK&lt;/td&gt;&lt;td&gt;uniqueId&lt;/td&gt;&lt;/tr&gt;&lt;tr&gt;&lt;td&gt;FK1&lt;/td&gt;&lt;td&gt;foreignKey&lt;/td&gt;&lt;/tr&gt;&lt;tr&gt;&lt;td&gt;&lt;/td&gt;&lt;td&gt;fieldname&lt;/td&gt;&lt;/tr&gt;&lt;/tbody&gt;&lt;/table&gt;" style="verticalAlign=top;align=left;overflow=fill;html=1;whiteSpace=wrap;" vertex="1" parent="1">&#xa;          <mxGeometry x="1066" y="810" width="134" height="75" as="geometry"/>&#xa;        </mxCell>&#xa;        <mxCell id="PjCL33VSLlb1CDlnu6tP-56" value="" style="shape=datastore;whiteSpace=wrap;html=1;" vertex="1" parent="1">&#xa;          <mxGeometry x="-250" y="480" width="40" height="50" as="geometry"/>&#xa;        </mxCell>&#xa;        <mxCell id="PjCL33VSLlb1CDlnu6tP-58" value="" style="shape=datastore;whiteSpace=wrap;html=1;" vertex="1" parent="1">&#xa;          <mxGeometry x="1100" y="560" width="40" height="50" as="geometry"/>&#xa;        </mxCell>&#xa;        <mxCell id="-6sMk77hEd1Zp21H3lka-4" style="edgeStyle=orthogonalEdgeStyle;rounded=0;orthogonalLoop=1;jettySize=auto;html=1;entryX=0;entryY=0.5;entryDx=0;entryDy=0;" edge="1" parent="1" source="-6sMk77hEd1Zp21H3lka-1" target="-6sMk77hEd1Zp21H3lka-2">&#xa;          <mxGeometry relative="1" as="geometry"/>&#xa;        </mxCell>&#xa;        <mxCell id="-6sMk77hEd1Zp21H3lka-7" style="edgeStyle=orthogonalEdgeStyle;rounded=0;orthogonalLoop=1;jettySize=auto;html=1;entryX=0;entryY=0.5;entryDx=0;entryDy=0;" edge="1" parent="1" source="-6sMk77hEd1Zp21H3lka-1" target="-6sMk77hEd1Zp21H3lka-5">&#xa;          <mxGeometry relative="1" as="geometry"/>&#xa;        </mxCell>&#xa;        <mxCell id="-6sMk77hEd1Zp21H3lka-10" style="edgeStyle=orthogonalEdgeStyle;rounded=0;orthogonalLoop=1;jettySize=auto;html=1;entryX=0;entryY=0.5;entryDx=0;entryDy=0;" edge="1" parent="1" source="-6sMk77hEd1Zp21H3lka-1" target="-6sMk77hEd1Zp21H3lka-8">&#xa;          <mxGeometry relative="1" as="geometry"/>&#xa;        </mxCell>&#xa;        <mxCell id="-6sMk77hEd1Zp21H3lka-13" style="edgeStyle=orthogonalEdgeStyle;rounded=0;orthogonalLoop=1;jettySize=auto;html=1;entryX=0;entryY=0.5;entryDx=0;entryDy=0;" edge="1" parent="1" source="-6sMk77hEd1Zp21H3lka-1" target="-6sMk77hEd1Zp21H3lka-11">&#xa;          <mxGeometry relative="1" as="geometry"/>&#xa;        </mxCell>&#xa;        <mxCell id="-6sMk77hEd1Zp21H3lka-16" style="edgeStyle=orthogonalEdgeStyle;rounded=0;orthogonalLoop=1;jettySize=auto;html=1;entryX=0;entryY=0.5;entryDx=0;entryDy=0;" edge="1" parent="1" source="-6sMk77hEd1Zp21H3lka-1" target="-6sMk77hEd1Zp21H3lka-14">&#xa;          <mxGeometry relative="1" as="geometry"/>&#xa;        </mxCell>&#xa;        <mxCell id="-6sMk77hEd1Zp21H3lka-19" style="edgeStyle=orthogonalEdgeStyle;rounded=0;orthogonalLoop=1;jettySize=auto;html=1;entryX=0;entryY=0.5;entryDx=0;entryDy=0;" edge="1" parent="1" source="-6sMk77hEd1Zp21H3lka-1" target="-6sMk77hEd1Zp21H3lka-17">&#xa;          <mxGeometry relative="1" as="geometry"/>&#xa;        </mxCell>&#xa;        <mxCell id="-6sMk77hEd1Zp21H3lka-1" value="Assistência Técnica" style="shape=module;align=left;spacingLeft=20;align=center;verticalAlign=top;whiteSpace=wrap;html=1;" vertex="1" parent="1">&#xa;          <mxGeometry x="340" y="575" width="120" height="60" as="geometry"/>&#xa;        </mxCell>&#xa;        <mxCell id="-6sMk77hEd1Zp21H3lka-2" value="" style="ellipse;whiteSpace=wrap;html=1;aspect=fixed;" vertex="1" parent="1">&#xa;          <mxGeometry x="510" y="495" width="20" height="20" as="geometry"/>&#xa;        </mxCell>&#xa;        <mxCell id="-6sMk77hEd1Zp21H3lka-3" value="Lista Ordens Em Aberto" style="text;html=1;strokeColor=none;fillColor=none;align=center;verticalAlign=middle;whiteSpace=wrap;rounded=0;" vertex="1" parent="1">&#xa;          <mxGeometry x="550" y="485" width="90" height="30" as="geometry"/>&#xa;        </mxCell>&#xa;        <mxCell id="-6sMk77hEd1Zp21H3lka-5" value="" style="ellipse;whiteSpace=wrap;html=1;aspect=fixed;" vertex="1" parent="1">&#xa;          <mxGeometry x="510" y="565" width="20" height="20" as="geometry"/>&#xa;        </mxCell>&#xa;        <mxCell id="-6sMk77hEd1Zp21H3lka-6" value="Locais de Assistência Técnica" style="text;html=1;strokeColor=none;fillColor=none;align=center;verticalAlign=middle;whiteSpace=wrap;rounded=0;" vertex="1" parent="1">&#xa;          <mxGeometry x="550" y="565" width="90" height="30" as="geometry"/>&#xa;        </mxCell>&#xa;        <mxCell id="-6sMk77hEd1Zp21H3lka-8" value="" style="ellipse;whiteSpace=wrap;html=1;aspect=fixed;" vertex="1" parent="1">&#xa;          <mxGeometry x="510" y="650" width="20" height="20" as="geometry"/>&#xa;        </mxCell>&#xa;        <mxCell id="-6sMk77hEd1Zp21H3lka-9" value="Tipos de Atendimento" style="text;html=1;strokeColor=none;fillColor=none;align=center;verticalAlign=middle;whiteSpace=wrap;rounded=0;" vertex="1" parent="1">&#xa;          <mxGeometry x="550" y="640" width="90" height="30" as="geometry"/>&#xa;        </mxCell>&#xa;        <mxCell id="-6sMk77hEd1Zp21H3lka-11" value="" style="ellipse;whiteSpace=wrap;html=1;aspect=fixed;" vertex="1" parent="1">&#xa;          <mxGeometry x="510" y="710" width="20" height="20" as="geometry"/>&#xa;        </mxCell>&#xa;        <mxCell id="-6sMk77hEd1Zp21H3lka-12" value="Criar&amp;nbsp; Atendimento" style="text;html=1;strokeColor=none;fillColor=none;align=center;verticalAlign=middle;whiteSpace=wrap;rounded=0;" vertex="1" parent="1">&#xa;          <mxGeometry x="550" y="700" width="90" height="30" as="geometry"/>&#xa;        </mxCell>&#xa;        <mxCell id="-6sMk77hEd1Zp21H3lka-14" value="" style="ellipse;whiteSpace=wrap;html=1;aspect=fixed;" vertex="1" parent="1">&#xa;          <mxGeometry x="510" y="760" width="20" height="20" as="geometry"/>&#xa;        </mxCell>&#xa;        <mxCell id="-6sMk77hEd1Zp21H3lka-15" value="Deletar&amp;nbsp; Atendimento" style="text;html=1;strokeColor=none;fillColor=none;align=center;verticalAlign=middle;whiteSpace=wrap;rounded=0;" vertex="1" parent="1">&#xa;          <mxGeometry x="550" y="750" width="90" height="30" as="geometry"/>&#xa;        </mxCell>&#xa;        <mxCell id="-6sMk77hEd1Zp21H3lka-17" value="" style="ellipse;whiteSpace=wrap;html=1;aspect=fixed;" vertex="1" parent="1">&#xa;          <mxGeometry x="510" y="805" width="20" height="20" as="geometry"/>&#xa;        </mxCell>&#xa;        <mxCell id="-6sMk77hEd1Zp21H3lka-18" value="Acompanhar&amp;nbsp; Atendimento" style="text;html=1;strokeColor=none;fillColor=none;align=center;verticalAlign=middle;whiteSpace=wrap;rounded=0;" vertex="1" parent="1">&#xa;          <mxGeometry x="550" y="800" width="90" height="30" as="geometry"/>&#xa;        </mxCell>&#xa;        <mxCell id="-6sMk77hEd1Zp21H3lka-22" style="edgeStyle=orthogonalEdgeStyle;rounded=0;orthogonalLoop=1;jettySize=auto;html=1;entryX=0;entryY=0.5;entryDx=0;entryDy=0;" edge="1" parent="1" source="-6sMk77hEd1Zp21H3lka-20" target="-6sMk77hEd1Zp21H3lka-21">&#xa;          <mxGeometry relative="1" as="geometry"/>&#xa;        </mxCell>&#xa;        <mxCell id="-6sMk77hEd1Zp21H3lka-20" value="&lt;div style=&quot;box-sizing:border-box;width:100%;background:#e4e4e4;padding:2px;&quot;&gt;Atendimento&lt;/div&gt;&lt;table style=&quot;width:100%;font-size:1em;&quot; cellpadding=&quot;2&quot; cellspacing=&quot;0&quot;&gt;&lt;tbody&gt;&lt;tr&gt;&lt;td&gt;PK&lt;/td&gt;&lt;td&gt;uniqueId&lt;/td&gt;&lt;/tr&gt;&lt;tr&gt;&lt;td&gt;FK1&lt;/td&gt;&lt;td&gt;foreignKey&lt;/td&gt;&lt;/tr&gt;&lt;tr&gt;&lt;td&gt;&lt;/td&gt;&lt;td&gt;fieldname&lt;/td&gt;&lt;/tr&gt;&lt;/tbody&gt;&lt;/table&gt;" style="verticalAlign=top;align=left;overflow=fill;html=1;whiteSpace=wrap;" vertex="1" parent="1">&#xa;          <mxGeometry x="280" y="840" width="120" height="85" as="geometry"/>&#xa;        </mxCell>&#xa;        <mxCell id="-6sMk77hEd1Zp21H3lka-21" value="&lt;div style=&quot;box-sizing:border-box;width:100%;background:#e4e4e4;padding:2px;&quot;&gt;Usuario&lt;/div&gt;&lt;table style=&quot;width:100%;font-size:1em;&quot; cellpadding=&quot;2&quot; cellspacing=&quot;0&quot;&gt;&lt;tbody&gt;&lt;tr&gt;&lt;td&gt;PK&lt;/td&gt;&lt;td&gt;uniqueId&lt;/td&gt;&lt;/tr&gt;&lt;tr&gt;&lt;td&gt;FK1&lt;/td&gt;&lt;td&gt;foreignKey&lt;/td&gt;&lt;/tr&gt;&lt;tr&gt;&lt;td&gt;&lt;/td&gt;&lt;td&gt;fieldname&lt;/td&gt;&lt;/tr&gt;&lt;/tbody&gt;&lt;/table&gt;" style="verticalAlign=top;align=left;overflow=fill;html=1;whiteSpace=wrap;" vertex="1" parent="1">&#xa;          <mxGeometry x="500" y="937.5" width="130" height="82.5" as="geometry"/>&#xa;        </mxCell>&#xa;        <mxCell id="-6sMk77hEd1Zp21H3lka-23" value="&lt;div style=&quot;box-sizing:border-box;width:100%;background:#e4e4e4;padding:2px;&quot;&gt;Local&lt;/div&gt;&lt;table style=&quot;width:100%;font-size:1em;&quot; cellpadding=&quot;2&quot; cellspacing=&quot;0&quot;&gt;&lt;tbody&gt;&lt;tr&gt;&lt;td&gt;PK&lt;/td&gt;&lt;td&gt;uniqueId&lt;/td&gt;&lt;/tr&gt;&lt;tr&gt;&lt;td&gt;FK1&lt;/td&gt;&lt;td&gt;foreignKey&lt;/td&gt;&lt;/tr&gt;&lt;tr&gt;&lt;td&gt;&lt;/td&gt;&lt;td&gt;fieldname&lt;/td&gt;&lt;/tr&gt;&lt;/tbody&gt;&lt;/table&gt;" style="verticalAlign=top;align=left;overflow=fill;html=1;whiteSpace=wrap;" vertex="1" parent="1">&#xa;          <mxGeometry x="200" y="985" width="120" height="85" as="geometry"/>&#xa;        </mxCell>&#xa;      </root>&#xa;    </mxGraphModel>&#xa;  </diagram></mxfile>